<svg width="130" height="18" viewBox="0 0 130 18" fill="none" xmlns="http://www.w3.org/2000/svg">
<g clip-path="url(#clip0_376_3993)">
<path d="M17.9529 6.90409C17.8344 6.53961 17.5111 6.28156 17.1302 6.24709L11.9341 5.77536L9.88059 0.967661C9.72898 0.614445 9.384 0.386475 9.00002 0.386475C8.61605 0.386475 8.27093 0.614445 8.12028 0.967661L6.06676 5.77536L0.869868 6.24709C0.488911 6.28225 0.166319 6.54029 0.0471156 6.90409C-0.0714014 7.26856 0.0380517 7.66833 0.326173 7.92102L4.25399 11.3652L3.09587 16.4659C3.01114 16.841 3.15671 17.2288 3.4679 17.4537C3.63517 17.5753 3.83169 17.636 4.0289 17.636C4.19837 17.636 4.36797 17.5909 4.51945 17.5003L9.00002 14.8212L13.4798 17.5003C13.8084 17.6967 14.2216 17.6787 14.5321 17.4537C14.8433 17.2288 14.9889 16.841 14.9042 16.4659L13.7461 11.3652L17.6739 7.92102C17.9619 7.66833 18.0714 7.26939 17.9529 6.90409Z" fill="black"/>
</g>
<g clip-path="url(#clip1_376_3993)">
<path d="M73.9529 6.90409C73.8344 6.53961 73.5111 6.28156 73.1302 6.24709L67.9341 5.77536L65.8806 0.967661C65.729 0.614445 65.384 0.386475 65 0.386475C64.616 0.386475 64.2709 0.614445 64.1203 0.967661L62.0668 5.77536L56.8699 6.24709C56.4889 6.28225 56.1663 6.54029 56.0471 6.90409C55.9286 7.26856 56.0381 7.66833 56.3262 7.92102L60.254 11.3652L59.0959 16.4659C59.0111 16.841 59.1567 17.2288 59.4679 17.4537C59.6352 17.5753 59.8317 17.636 60.0289 17.636C60.1984 17.636 60.368 17.5909 60.5194 17.5003L65 14.8212L69.4798 17.5003C69.8084 17.6967 70.2216 17.6787 70.5321 17.4537C70.8433 17.2288 70.9889 16.841 70.9042 16.4659L69.7461 11.3652L73.6739 7.92102C73.9619 7.66833 74.0714 7.26939 73.9529 6.90409Z" fill="black"/>
</g>
<g clip-path="url(#clip2_376_3993)">
<path d="M45.9529 6.90409C45.8344 6.53961 45.5111 6.28156 45.1302 6.24709L39.9341 5.77536L37.8806 0.967661C37.729 0.614445 37.384 0.386475 37 0.386475C36.616 0.386475 36.2709 0.614445 36.1203 0.967661L34.0668 5.77536L28.8699 6.24709C28.4889 6.28225 28.1663 6.54029 28.0471 6.90409C27.9286 7.26856 28.0381 7.66833 28.3262 7.92102L32.254 11.3652L31.0959 16.4659C31.0111 16.841 31.1567 17.2288 31.4679 17.4537C31.6352 17.5753 31.8317 17.636 32.0289 17.636C32.1984 17.636 32.368 17.5909 32.5194 17.5003L37 14.8212L41.4798 17.5003C41.8084 17.6967 42.2216 17.6787 42.5321 17.4537C42.8433 17.2288 42.9889 16.841 42.9042 16.4659L41.7461 11.3652L45.6739 7.92102C45.9619 7.66833 46.0714 7.26939 45.9529 6.90409Z" fill="black"/>
</g>
<g clip-path="url(#clip3_376_3993)">
<path d="M101.953 6.90409C101.834 6.53961 101.511 6.28156 101.13 6.24709L95.9341 5.77536L93.8806 0.967661C93.729 0.614445 93.384 0.386475 93 0.386475C92.616 0.386475 92.2709 0.614445 92.1203 0.967661L90.0668 5.77536L84.8699 6.24709C84.4889 6.28225 84.1663 6.54029 84.0471 6.90409C83.9286 7.26856 84.0381 7.66833 84.3262 7.92102L88.254 11.3652L87.0959 16.4659C87.0111 16.841 87.1567 17.2288 87.4679 17.4537C87.6352 17.5753 87.8317 17.636 88.0289 17.636C88.1984 17.636 88.368 17.5909 88.5194 17.5003L93 14.8212L97.4798 17.5003C97.8084 17.6967 98.2216 17.6787 98.5321 17.4537C98.8433 17.2288 98.9889 16.841 98.9042 16.4659L97.7461 11.3652L101.674 7.92102C101.962 7.66833 102.071 7.26939 101.953 6.90409Z" fill="black"/>
</g>
<g clip-path="url(#clip4_376_3993)">
<path d="M129.953 6.90409C129.834 6.53961 129.511 6.28156 129.13 6.24709L123.934 5.77536L121.881 0.967661C121.729 0.614445 121.384 0.386475 121 0.386475C120.616 0.386475 120.271 0.614445 120.12 0.967661L118.067 5.77536L112.87 6.24709C112.489 6.28225 112.166 6.54029 112.047 6.90409C111.929 7.26856 112.038 7.66833 112.326 7.92102L116.254 11.3652L115.096 16.4659C115.011 16.841 115.157 17.2288 115.468 17.4537C115.635 17.5753 115.832 17.636 116.029 17.636C116.198 17.636 116.368 17.5909 116.519 17.5003L121 14.8212L125.48 17.5003C125.808 17.6967 126.222 17.6787 126.532 17.4537C126.843 17.2288 126.989 16.841 126.904 16.4659L125.746 11.3652L129.674 7.92102C129.962 7.66833 130.071 7.26939 129.953 6.90409Z" fill="black"/>
</g>
<defs>
<clipPath id="clip0_376_3993">
<rect width="18" height="18" fill="white"/>
</clipPath>
<clipPath id="clip1_376_3993">
<rect width="18" height="18" fill="white" transform="translate(56)"/>
</clipPath>
<clipPath id="clip2_376_3993">
<rect width="18" height="18" fill="white" transform="translate(28)"/>
</clipPath>
<clipPath id="clip3_376_3993">
<rect width="18" height="18" fill="white" transform="translate(84)"/>
</clipPath>
<clipPath id="clip4_376_3993">
<rect width="18" height="18" fill="white" transform="translate(112)"/>
</clipPath>
</defs>
</svg>
